<?xml version="1.0" encoding="UTF-8" standalone="no"?>
<!-- Created with Inkscape (http://www.inkscape.org/) -->

<svg
   xmlns:dc="http://purl.org/dc/elements/1.1/"
   xmlns:cc="http://creativecommons.org/ns#"
   xmlns:rdf="http://www.w3.org/1999/02/22-rdf-syntax-ns#"
   xmlns:svg="http://www.w3.org/2000/svg"
   xmlns="http://www.w3.org/2000/svg"
   xmlns:xlink="http://www.w3.org/1999/xlink"
   xmlns:sodipodi="http://sodipodi.sourceforge.net/DTD/sodipodi-0.dtd"
   xmlns:inkscape="http://www.inkscape.org/namespaces/inkscape"
   width="128"
   height="128"
   id="svg2"
   version="1.1"
   inkscape:version="0.47 r22583"
   sodipodi:docname="New document 1">
  <defs
     id="defs4">
    <linearGradient
       id="linearGradient3633"
       inkscape:collect="always">
      <stop
         id="stop3635"
         offset="0"
         style="stop-color:#e6e6e6;stop-opacity:1" />
      <stop
         id="stop3637"
         offset="1"
         style="stop-color:#ffffff;stop-opacity:1" />
    </linearGradient>
    <linearGradient
       inkscape:collect="always"
       id="linearGradient2835">
      <stop
         style="stop-color:#000000;stop-opacity:1;"
         offset="0"
         id="stop2837" />
      <stop
         style="stop-color:#4d4d4d;stop-opacity:1"
         offset="1"
         id="stop2839" />
    </linearGradient>
    <inkscape:perspective
       sodipodi:type="inkscape:persp3d"
       inkscape:vp_x="0 : 526.18109 : 1"
       inkscape:vp_y="0 : 1000 : 0"
       inkscape:vp_z="744.09448 : 526.18109 : 1"
       inkscape:persp3d-origin="372.04724 : 350.78739 : 1"
       id="perspective10" />
    <linearGradient
       inkscape:collect="always"
       xlink:href="#linearGradient3633"
       id="linearGradient2824"
       x1="68.160446"
       y1="1021.2032"
       x2="54.174274"
       y2="856.37878"
       gradientUnits="userSpaceOnUse"
       gradientTransform="translate(7e-6,-2.4092711e-6)" />
    <linearGradient
       inkscape:collect="always"
       xlink:href="#linearGradient2835"
       id="linearGradient2841"
       x1="46.38451"
       y1="1001.5517"
       x2="43.728909"
       y2="924.18512"
       gradientUnits="userSpaceOnUse" />
    <linearGradient
       inkscape:collect="always"
       xlink:href="#linearGradient3633"
       id="linearGradient3953"
       gradientUnits="userSpaceOnUse"
       gradientTransform="translate(7e-6,-2.4092711e-6)"
       x1="68.160446"
       y1="1021.2032"
       x2="54.174274"
       y2="856.37878" />
    <linearGradient
       inkscape:collect="always"
       xlink:href="#linearGradient2835"
       id="linearGradient3955"
       gradientUnits="userSpaceOnUse"
       x1="46.38451"
       y1="1001.5517"
       x2="43.728909"
       y2="924.18512" />
    <linearGradient
       inkscape:collect="always"
       xlink:href="#linearGradient3633"
       id="linearGradient3987"
       gradientUnits="userSpaceOnUse"
       gradientTransform="translate(7e-6,-2.4092711e-6)"
       x1="68.160446"
       y1="1021.2032"
       x2="54.174274"
       y2="856.37878" />
    <linearGradient
       inkscape:collect="always"
       xlink:href="#linearGradient2835"
       id="linearGradient3989"
       gradientUnits="userSpaceOnUse"
       x1="46.38451"
       y1="1001.5517"
       x2="43.728909"
       y2="924.18512" />
  </defs>
  <sodipodi:namedview
     id="base"
     pagecolor="#ffffff"
     bordercolor="#666666"
     borderopacity="1.0"
     inkscape:pageopacity="0.0"
     inkscape:pageshadow="2"
     inkscape:zoom="1"
     inkscape:cx="72.230458"
     inkscape:cy="65.292971"
     inkscape:document-units="px"
     inkscape:current-layer="layer1"
     showgrid="false"
     inkscape:window-width="1280"
     inkscape:window-height="968"
     inkscape:window-x="-4"
     inkscape:window-y="-4"
     inkscape:window-maximized="1"
     inkscape:snap-to-guides="false" />
  <metadata
     id="metadata7">
    <rdf:RDF>
      <cc:Work
         rdf:about="">
        <dc:format>image/svg+xml</dc:format>
        <dc:type
           rdf:resource="http://purl.org/dc/dcmitype/StillImage" />
        <dc:title></dc:title>
      </cc:Work>
    </rdf:RDF>
  </metadata>
  <g
     inkscape:label="Layer 1"
     inkscape:groupmode="layer"
     id="layer1"
     transform="translate(0,-924.36218)">
    <g
       id="g3937"
       transform="matrix(0.88638635,-0.23750651,0.23750651,0.88638635,-225.34526,125.05066)">
      <g
         transform="translate(80,0)"
         id="g3849">
        <path
           id="path3851"
           d="m -68.65625,1004.5312 c 28.552083,0 57.104167,10e-5 85.65625,0 0,-20.58328 0,-41.16662 0,-61.74995 -28.552083,0 -57.104167,0 -85.65625,0 0,20.58333 0,41.16667 0,61.74995 z"
           style="opacity:0.09090899;fill:#000000;fill-opacity:1;fill-rule:evenodd;stroke:none" />
        <path
           id="path3855"
           d="m -69.15625,1005.0312 c 28.885417,0 57.770833,10e-5 86.65625,0 0,-20.91662 0,-41.83328 0,-62.74995 -28.885417,0 -57.770833,0 -86.65625,0 0,20.91667 0,41.83333 0,62.74995 z"
           style="opacity:0.09090899;fill:#000000;fill-opacity:1;fill-rule:evenodd;stroke:none" />
        <path
           id="path3859"
           d="m -69.65625,1005.5312 c 29.21875,10e-5 58.4375,0 87.65625,0 0,-21.24995 0,-42.49995 0,-63.74995 -29.21875,0 -58.4375,0 -87.65625,0 0,21.25 0,42.5 0,63.74995 z"
           style="opacity:0.09090899;fill:#000000;fill-opacity:1;fill-rule:evenodd;stroke:none" />
        <path
           id="path3863"
           d="m -70.15625,941.3125 c 0.02091,21.56242 -0.04177,43.20844 0.03125,64.7187 29.510339,-0.062 59.270937,0.1252 88.625,-0.094 -0.06304,-21.52029 0.125725,-43.29239 -0.09375,-64.65625 -29.510343,0.0209 -59.104266,-0.0417 -88.5625,0.0312 z"
           style="opacity:0.09090899;fill:#000000;fill-opacity:1;fill-rule:evenodd;stroke:none" />
        <path
           id="path3867"
           d="m -70.28125,940.8125 c -1.10374,1.4558 0.03744,4.17293 -0.375,6 0.06309,19.84821 -0.12579,39.74352 0.09375,59.5625 13.13978,0.3687 26.587074,0.049 39.84375,0.1562 16.506006,-0.063 33.1294129,0.1258 49.5625,-0.094 C 19.210705,990.7583 18.894062,974.7896 19,959 c -0.119113,-5.99782 0.228503,-12.22724 -0.15625,-18.09375 -29.589771,-0.2921 -59.391399,-0.0413 -89.0625,-0.125 l -0.0625,0.0312 z"
           style="opacity:0.09090899;fill:#000000;fill-opacity:1;fill-rule:evenodd;stroke:none" />
        <path
           style="opacity:0.09090899;fill:#000000;fill-opacity:1;fill-rule:evenodd;stroke:none"
           d="m -70.21048,940.29578 88.769539,0 c 0.519375,0 0.9375,0.41812 0.9375,0.9375 l 0,64.86912 c 0,0.5194 -0.418125,0.9375 -0.9375,0.9375 l -88.769539,0 c -0.519375,0 -0.9375,-0.4181 -0.9375,-0.9375 l 0,-64.86912 c 0,-0.51938 0.418125,-0.9375 0.9375,-0.9375 z"
           id="path3871" />
        <path
           id="path3873"
           d="m -70.5,939.8125 c -2.440035,1.08741 -0.575539,4.82301 -1.15625,6.90625 0.08495,19.97026 -0.168833,40.01014 0.125,59.93745 1.383609,2.0591 4.727673,0.2889 6.8125,0.875 27.958432,-0.084 55.9986456,0.1676 83.90625,-0.125 1.954419,-1.6834 0.236893,-5.0523 0.8125,-7.3124 -0.08481,-19.8167 0.168641,-39.68244 -0.125,-59.4688 -1.653029,-2.02757 -5.049952,-0.2489 -7.3125,-0.84375 -27.686617,0.0209 -55.380202,-0.0418 -83.0625,0.0312 z"
           style="opacity:0.09090899;fill:#000000;fill-opacity:1;fill-rule:evenodd;stroke:none" />
        <path
           id="path3877"
           d="m -70.5625,939.3125 c -3.922688,2.0972 -0.408195,8.41372 -1.59375,11.90625 0.205557,18.61457 -0.399287,37.37951 0.28125,55.90625 3.65131,2.6351 9.384244,-0.062 13.65625,0.9062 25.937856,-0.2388 52.1110685,0.4714 77.90625,-0.3437 2.369449,-4.4522 -0.06328,-10.62501 0.8125,-15.59375 -0.281025,-17.29429 0.541829,-34.86379 -0.375,-52 -4.084161,-2.43022 -9.959303,0.10528 -14.5625,-0.8125 -25.374106,0.021 -50.755216,-0.0419 -76.125,0.0312 z"
           style="opacity:0.09090899;fill:#000000;fill-opacity:1;fill-rule:evenodd;stroke:none" />
        <path
           id="path3881"
           d="m -70.46875,938.8125 c -4.72856,1.67052 -1.011655,8.77155 -2.1875,12.40625 0.253671,18.69276 -0.491352,37.57052 0.34375,56.15625 3.625882,3.103 9.693022,0.1093 14.09375,1.1562 25.958856,-0.1938 52.0739364,0.3836 77.9375,-0.2812 3.322177,-3.4906 0.204291,-9.76329 1.28125,-14.15625 -0.277112,-18.02089 0.536578,-36.26338 -0.375,-54.15625 -3.61899,-3.11938 -9.67905,-0.0996 -14.0625,-1.15625 -25.675775,0.0209 -51.361896,-0.0418 -77.03125,0.0312 z"
           style="opacity:0.09090899;fill:#000000;fill-opacity:1;fill-rule:evenodd;stroke:none" />
        <path
           id="path3885"
           d="m -70.5625,938.3125 c -5.164925,1.65051 -1.498074,9.03775 -2.59375,12.90625 0.225676,18.69936 -0.440034,37.53968 0.3125,56.15625 2.989606,3.9037 9.433129,0.5402 13.625,1.6562 26.372431,-0.2375 52.9244301,0.4696 79.1875,-0.3437 3.722633,-3.5212 0.419508,-10.04493 1.53125,-14.59375 -0.256514,-18.05526 0.495229,-36.30746 -0.34375,-54.25 -3.492551,-3.83216 -10.066239,-0.40711 -14.59375,-1.5625 -25.707447,0.0209 -51.421874,-0.0418 -77.125,0.0312 z"
           style="opacity:0.09090899;fill:#000000;fill-opacity:1;fill-rule:evenodd;stroke:none" />
        <path
           id="path3889"
           d="m -70.625,937.8125 c -5.620176,1.57816 -2.025858,9.31721 -3.03125,13.40625 0.248927,18.7604 -0.484997,37.67206 0.34375,56.34375 3.26335,4.4734 10.426242,0.7573 15.09375,1.9687 26.056756,-0.1933 52.2383895,0.3829 78.21875,-0.2812 4.461458,-3.3618 0.825984,-10.43736 2,-15.15625 -0.134338,-18.03383 0.262579,-36.12557 -0.1875,-54.125 -3.210382,-4.80906 -10.528534,-0.95591 -15.25,-2.1875 -25.72828,0.0209 -51.463541,-0.0418 -77.1875,0.0312 z"
           style="opacity:0.09090899;fill:#000000;fill-opacity:1;fill-rule:evenodd;stroke:none" />
      </g>
      <rect
         y="940.29578"
         x="8.8520164"
         height="66.744125"
         width="90.644539"
         id="rect2816"
         style="fill:url(#linearGradient3953);fill-opacity:1;fill-rule:evenodd;stroke:none" />
      <path
         id="path2830"
         d="m 14.15625,945.59375 0,56.12505 80.03125,0 0,-56.12505 -80.03125,0 z"
         style="fill:url(#linearGradient3955);fill-opacity:1;fill-rule:evenodd;stroke:none" />
    </g>
    <g
       transform="matrix(0.88638636,0.23750651,-0.23750651,0.88638636,258.15529,123.06354)"
       id="g3957">
      <g
         id="g3959"
         transform="translate(80,0)">
        <path
           style="opacity:0.09090899;fill:#000000;fill-opacity:1;fill-rule:evenodd;stroke:none"
           d="m -68.65625,1004.5312 c 28.552083,0 57.104167,10e-5 85.65625,0 0,-20.58328 0,-41.16662 0,-61.74995 -28.552083,0 -57.104167,0 -85.65625,0 0,20.58333 0,41.16667 0,61.74995 z"
           id="path3961" />
        <path
           style="opacity:0.09090899;fill:#000000;fill-opacity:1;fill-rule:evenodd;stroke:none"
           d="m -69.15625,1005.0312 c 28.885417,0 57.770833,10e-5 86.65625,0 0,-20.91662 0,-41.83328 0,-62.74995 -28.885417,0 -57.770833,0 -86.65625,0 0,20.91667 0,41.83333 0,62.74995 z"
           id="path3963" />
        <path
           style="opacity:0.09090899;fill:#000000;fill-opacity:1;fill-rule:evenodd;stroke:none"
           d="m -69.65625,1005.5312 c 29.21875,10e-5 58.4375,0 87.65625,0 0,-21.24995 0,-42.49995 0,-63.74995 -29.21875,0 -58.4375,0 -87.65625,0 0,21.25 0,42.5 0,63.74995 z"
           id="path3965" />
        <path
           style="opacity:0.09090899;fill:#000000;fill-opacity:1;fill-rule:evenodd;stroke:none"
           d="m -70.15625,941.3125 c 0.02091,21.56242 -0.04177,43.20844 0.03125,64.7187 29.510339,-0.062 59.270937,0.1252 88.625,-0.094 -0.06304,-21.52029 0.125725,-43.29239 -0.09375,-64.65625 -29.510343,0.0209 -59.104266,-0.0417 -88.5625,0.0312 z"
           id="path3967" />
        <path
           style="opacity:0.09090899;fill:#000000;fill-opacity:1;fill-rule:evenodd;stroke:none"
           d="m -70.28125,940.8125 c -1.10374,1.4558 0.03744,4.17293 -0.375,6 0.06309,19.84821 -0.12579,39.74352 0.09375,59.5625 13.13978,0.3687 26.587074,0.049 39.84375,0.1562 16.506006,-0.063 33.1294129,0.1258 49.5625,-0.094 C 19.210705,990.7583 18.894062,974.7896 19,959 c -0.119113,-5.99782 0.228503,-12.22724 -0.15625,-18.09375 -29.589771,-0.2921 -59.391399,-0.0413 -89.0625,-0.125 l -0.0625,0.0312 z"
           id="path3969" />
        <path
           id="path3971"
           d="m -70.21048,940.29578 88.769539,0 c 0.519375,0 0.9375,0.41812 0.9375,0.9375 l 0,64.86912 c 0,0.5194 -0.418125,0.9375 -0.9375,0.9375 l -88.769539,0 c -0.519375,0 -0.9375,-0.4181 -0.9375,-0.9375 l 0,-64.86912 c 0,-0.51938 0.418125,-0.9375 0.9375,-0.9375 z"
           style="opacity:0.09090899;fill:#000000;fill-opacity:1;fill-rule:evenodd;stroke:none" />
        <path
           style="opacity:0.09090899;fill:#000000;fill-opacity:1;fill-rule:evenodd;stroke:none"
           d="m -70.5,939.8125 c -2.440035,1.08741 -0.575539,4.82301 -1.15625,6.90625 0.08495,19.97026 -0.168833,40.01014 0.125,59.93745 1.383609,2.0591 4.727673,0.2889 6.8125,0.875 27.958432,-0.084 55.9986456,0.1676 83.90625,-0.125 1.954419,-1.6834 0.236893,-5.0523 0.8125,-7.3124 -0.08481,-19.8167 0.168641,-39.68244 -0.125,-59.4688 -1.653029,-2.02757 -5.049952,-0.2489 -7.3125,-0.84375 -27.686617,0.0209 -55.380202,-0.0418 -83.0625,0.0312 z"
           id="path3973" />
        <path
           style="opacity:0.09090899;fill:#000000;fill-opacity:1;fill-rule:evenodd;stroke:none"
           d="m -70.5625,939.3125 c -3.922688,2.0972 -0.408195,8.41372 -1.59375,11.90625 0.205557,18.61457 -0.399287,37.37951 0.28125,55.90625 3.65131,2.6351 9.384244,-0.062 13.65625,0.9062 25.937856,-0.2388 52.1110685,0.4714 77.90625,-0.3437 2.369449,-4.4522 -0.06328,-10.62501 0.8125,-15.59375 -0.281025,-17.29429 0.541829,-34.86379 -0.375,-52 -4.084161,-2.43022 -9.959303,0.10528 -14.5625,-0.8125 -25.374106,0.021 -50.755216,-0.0419 -76.125,0.0312 z"
           id="path3975" />
        <path
           style="opacity:0.09090899;fill:#000000;fill-opacity:1;fill-rule:evenodd;stroke:none"
           d="m -70.46875,938.8125 c -4.72856,1.67052 -1.011655,8.77155 -2.1875,12.40625 0.253671,18.69276 -0.491352,37.57052 0.34375,56.15625 3.625882,3.103 9.693022,0.1093 14.09375,1.1562 25.958856,-0.1938 52.0739364,0.3836 77.9375,-0.2812 3.322177,-3.4906 0.204291,-9.76329 1.28125,-14.15625 -0.277112,-18.02089 0.536578,-36.26338 -0.375,-54.15625 -3.61899,-3.11938 -9.67905,-0.0996 -14.0625,-1.15625 -25.675775,0.0209 -51.361896,-0.0418 -77.03125,0.0312 z"
           id="path3977" />
        <path
           style="opacity:0.09090899;fill:#000000;fill-opacity:1;fill-rule:evenodd;stroke:none"
           d="m -70.5625,938.3125 c -5.164925,1.65051 -1.498074,9.03775 -2.59375,12.90625 0.225676,18.69936 -0.440034,37.53968 0.3125,56.15625 2.989606,3.9037 9.433129,0.5402 13.625,1.6562 26.372431,-0.2375 52.9244301,0.4696 79.1875,-0.3437 3.722633,-3.5212 0.419508,-10.04493 1.53125,-14.59375 -0.256514,-18.05526 0.495229,-36.30746 -0.34375,-54.25 -3.492551,-3.83216 -10.066239,-0.40711 -14.59375,-1.5625 -25.707447,0.0209 -51.421874,-0.0418 -77.125,0.0312 z"
           id="path3979" />
        <path
           style="opacity:0.09090899;fill:#000000;fill-opacity:1;fill-rule:evenodd;stroke:none"
           d="m -70.625,937.8125 c -5.620176,1.57816 -2.025858,9.31721 -3.03125,13.40625 0.248927,18.7604 -0.484997,37.67206 0.34375,56.34375 3.26335,4.4734 10.426242,0.7573 15.09375,1.9687 26.056756,-0.1933 52.2383895,0.3829 78.21875,-0.2812 4.461458,-3.3618 0.825984,-10.43736 2,-15.15625 -0.134338,-18.03383 0.262579,-36.12557 -0.1875,-54.125 -3.210382,-4.80906 -10.528534,-0.95591 -15.25,-2.1875 -25.72828,0.0209 -51.463541,-0.0418 -77.1875,0.0312 z"
           id="path3981" />
      </g>
      <rect
         style="fill:url(#linearGradient3987);fill-opacity:1;fill-rule:evenodd;stroke:none"
         id="rect3983"
         width="90.644539"
         height="66.744125"
         x="8.8520164"
         y="940.29578" />
      <path
         style="fill:url(#linearGradient3989);fill-opacity:1;fill-rule:evenodd;stroke:none"
         d="m 14.15625,945.59375 0,56.12505 80.03125,0 0,-56.12505 -80.03125,0 z"
         id="path3985" />
    </g>
  </g>
</svg>
